# xmcd
#
# Track frame offsets: 
#        150
#        9157
#        22123
#        36882
#        45425
#        58944
#        73772
#        85953
#        100189
#        113430
#        124598
#        134275
#        147014
#        158570
#        172657
#
# Disc length: 2414 seconds
#
# Revision: 0
# Processed by: cddbd v1.5.2PL0 Copyright (c) Steve Scherf et al.
# Submitted via: ExactAudioCopy v0.99pb4
#
DISCID=b6096c0f
DTITLE=Various Artist - Country Love Juke Box Hits [CD 4]
DYEAR=2006
DGENRE=Country
TTITLE0=Patsy Cline - I Love You Honey
TTITLE1=Bobby Bare - I Took A Memory To Lunch
TTITLE2=Glen Campbell - I'm So Lonesome I Could Cry
TTITLE3=Waylon Jennings - Love's Gonna Live Here
TTITLE4=Connie Francis - Second Hand Love
TTITLE5=Bill Anderson - The Green Green Grass Of Home
TTITLE6=Willie Nelson - The Shelter Of Your Arms
TTITLE7=Jim Reeves - The Highway Of Nowhere
TTITLE8=Faron Young - Three Days
TTITLE9=Hank Locklin - To Whom It May Concern
TTITLE10=Glen Campbell - Dreams Of The Everyday Housewife
TTITLE11=Faron Young - Country Girl
TTITLE12=Buck Owens - Foolin' Around
TTITLE13=Tommy Overstreet - Heart Of Dixie
TTITLE14=Billie Jo Spears - You're My Man
EXTD=
EXTT0=
EXTT1=
EXTT2=
EXTT3=
EXTT4=
EXTT5=
EXTT6=
EXTT7=
EXTT8=
EXTT9=
EXTT10=
EXTT11=
EXTT12=
EXTT13=
EXTT14=
PLAYORDER=
